<?xml version="1.0" encoding="UTF-8" standalone="no"?>
<svg
   xmlns:dc="http://purl.org/dc/elements/1.1/"
   xmlns:cc="http://creativecommons.org/ns#"
   xmlns:rdf="http://www.w3.org/1999/02/22-rdf-syntax-ns#"
   xmlns:svg="http://www.w3.org/2000/svg"
   xmlns="http://www.w3.org/2000/svg"
   viewBox="0 0 480 336"
   height="336"
   width="480"
   xml:space="preserve"
   id="svg2"
   version="1.1"><metadata
     id="metadata8"><rdf:RDF><cc:Work
         rdf:about=""><dc:format>image/svg+xml</dc:format><dc:type
           rdf:resource="http://purl.org/dc/dcmitype/StillImage" /></cc:Work></rdf:RDF></metadata><defs
     id="defs6" /><g
     transform="matrix(1.3333333,0,0,-1.3333333,0,336)"
     id="g10"><g
       transform="scale(0.1)"
       id="g12"><g
         transform="scale(10)"
         id="g14"><text
           id="text18"
           style="font-variant:normal;font-weight:normal;font-size:12.5px;font-family:Arial;-inkscape-font-specification:Arial;writing-mode:lr-tb;fill:#ff0000;fill-opacity:1;fill-rule:nonzero;stroke:none"
           transform="matrix(1,0,0,-1,89.3,210.585)"><tspan
             id="tspan16"
             y="0"
             x="0 9.0249996 16.325001 19.799999 26.75 33.700001 37.174999 44.125 51.075001">R= 48.69 </tspan></text>
</g><path
         id="path20"
         style="fill:#ff0000;fill-opacity:1;fill-rule:nonzero;stroke:none"
         d="m 1272,657.5 32.5,-39.5 -141,-50 75.5,129 33,-39.5" /><path
         id="path22"
         style="fill:none;stroke:#ff0000;stroke-width:25;stroke-linecap:butt;stroke-linejoin:miter;stroke-miterlimit:3.79999995;stroke-dasharray:none;stroke-opacity:1"
         d="m 1272,657.5 32.5,-39.5 -141,-50 75.5,129 33,-39.5 m 1619,1342 -1619,-1342" /><path
         id="path24"
         style="fill:#ff0000;fill-opacity:1;fill-rule:nonzero;stroke:none"
         d="m 1272,657.5 32.5,-39.5 -141,-50 75.5,129 33,-39.5" /><path
         id="path26"
         style="fill:none;stroke:#ff0000;stroke-width:25;stroke-linecap:butt;stroke-linejoin:miter;stroke-miterlimit:3.79999995;stroke-dasharray:none;stroke-opacity:1"
         d="m 1272,657.5 32.5,-39.5 -141,-50 75.5,129 33,-39.5" /><path
         id="path28"
         style="fill:none;stroke:#000000;stroke-width:2.5;stroke-linecap:butt;stroke-linejoin:miter;stroke-miterlimit:3.79999995;stroke-dasharray:none;stroke-opacity:1"
         d="m 2891,1999.5 -33,-30.5 -37,-28.5 -20,-35 -49.5,-19.5 -48,21 -58.5,-2.5 -54.5,-12.5 -17,35.5 -14.5,-36 57.5,-6.5 -58.5,0.5 -1,37 -57.5,6.5 -14,36 40,-27 -57,-7 56,9.5 1.5,-37 55,12.5 -36.5,-29 50.5,19 46.5,22 -41.5,26 32.5,31 53.5,-14.5 -48,21 -31.5,-31 -15.5,-36 -55,12.5 -7.5,-36.5 -58,4 -43.5,24.5 6.5,-36.5 53.5,-15.5 -50.5,19 25.5,-33.5 -21.5,34.5 -19.5,35 58,-3 -56.5,9 -52,-17.5 12,-36.5 58,-3 42.5,25.5 35,29.5 56.5,-10 -5.5,37 52.5,16.5 -52.5,-16.5 56,11 19,35 -15,35.5 21,34.5 -55.5,11.5 56.5,-10 -48,-21.5 55.5,11 58.5,-1.5 -41,26.5 -49.5,19.5 -49.5,-19.5 -46.5,-22.5 -58,3.5 -45.5,-23.5 -53,15.5 58.5,-3 -23,34 57.5,7 46.5,-22 -55.5,-11.5 -58,-1.5 -58,-5.5 55.5,-12 56.5,-9 -58.5,0.5 -8,36.5 57,9 8.5,-37 -58.5,3 2,37 34.5,30 -34.5,-30 4,-37 -39,27.5 34.5,30 -57,-8 54.5,-13 25,33.5 32,31 57.5,-5 -23,-34 36,-29.5 42.5,-25.5 49,-20 39.5,-27.5 -38,28.5 -51.5,-17.5 9.5,-36.5 48,-21 -1,-37 -22,-34 57,8 1.5,-37 44,-24.5" /><path
         id="path30"
         style="fill:none;stroke:#000000;stroke-width:2.5;stroke-linecap:butt;stroke-linejoin:miter;stroke-miterlimit:3.79999995;stroke-dasharray:none;stroke-opacity:1"
         d="m 2699.5,1845 33.5,30.5 -50,-19.5 -58,2.5 -42.5,-25.5 -56.5,9 58,-3.5 2.5,-37 -53,-15.5 -57,8 -39,-28 -14,36 -37.5,-28 13,36 47,-22 40,-27 -35.5,-29.5 8.5,37 -38.5,-28 -51,-18 21,-34.5 -55,-12 27,32.5 12.5,36 55,13 49.5,-19.5 -58.5,1.5 -13.5,-36 -30.5,-32 -53,-15.5 26,33 -56.5,-10 -26,33 56.5,-10 51,18 -57,-8.5 38.5,-28 -36.5,-28.5 -54.5,-14 -12,-36 -12.5,-36 -58,-5 -36.5,-29 -15,-35.5 -28,32.5 25.5,33 58,5.5 23.5,-33.5 3,36.5 -24,-33.5 -47,22 33,31 57.5,-5 -58,-1.5 46,22.5 56.5,10 -19.5,34.5 -44.5,24 -54,14.5 54.5,14 58,-1.5 -2.5,-37 -29,-32 51.5,-17.5 -21.5,34.5 -1.5,-37 49,-20 -58,-4 46.5,-22 -51.5,-17 -57.5,-6.5 -58.5,-1 58,-3 56.5,-9.5 21.5,-34.5 -55,13 -57.5,6 26,-33 -20,-34.5 -33.5,30 -53,-15 57.5,-7 37,-28.5 -4,-37 34,30 -48.5,20 16.5,35.5 -30,32 -58.5,2 -39.5,27.5 29,-32.5 -19.5,35 -49,-19.5 -58.5,-2 57,7.5 16,35.5 5.5,37 58.5,-1.5 16,-35.5 33,-30.5 -57.5,-7 -51.5,-17.5 -11,-36 18,-35.5 -28,32.5" /><path
         id="path32"
         style="fill:none;stroke:#000000;stroke-width:2.5;stroke-linecap:butt;stroke-linejoin:miter;stroke-miterlimit:3.79999995;stroke-dasharray:none;stroke-opacity:1"
         d="m 2004.5,1469 58,-2.5 3.5,-37 33.5,30.5 16.5,35.5 9.5,-36.5 49,20 21.5,34.5 51.5,-17.5 -17,35.5 52.5,15.5 -36.5,-29 39,-27 -14,-36 -38,28 48,21 -57.5,7 -46,23 -36,-29.5 -38,28 -42.5,25.5 12.5,36 -48.5,-20.5 -47.5,-22 41.5,-26 33,30.5 -6.5,37 -11.5,36 55,12 58,6 22,-34 -42,25.5 43.5,-24.5 -55.5,11.5 56,-11 -32,-31 19,-35 -50,-19 24,34 -5.5,-37 -22,-34.5 -57,7.5 33.5,30.5 -43,25.5 34.5,30 53.5,14.5 34.5,30 33,-30.5 55.5,-12.5 -12.5,-36 40,-27 -18.5,-35 16.5,35.5 -45.5,-23 26.5,-33 -9,-36.5 21,34.5 -55,-12.5 -48.5,21 34,-30 43.5,24.5 -55.5,-11.5 -17.5,35.5 14,36 58,-4 -58,-1 58,3.5 26,-33 -40,27 h -58.5 l 37.5,-28.5 17,35.5 16.5,-35.5 -34.5,-30 -58.5,-1 31.5,-31.5 26.5,33 -29.5,31.5 -12,36.5 26,-33 -15.5,-36 -53.5,15 19.5,35 57.5,6.5 -53,15.5 -3,37 -46.5,-22.5 -35,29.5 28,33 -8,36.5 -40,-27 15.5,-36 -46,23 57,-8 8.5,37 -46.5,-22.5 -32,-31 14.5,-36 -27.5,33 -26,-33.5 -21.5,-34.5 58,-3.5 -57,-8.5 -43,24.5 -51.5,18" /><path
         id="path34"
         style="fill:none;stroke:#000000;stroke-width:2.5;stroke-linecap:butt;stroke-linejoin:miter;stroke-miterlimit:3.79999995;stroke-dasharray:none;stroke-opacity:1"
         d="m 1842,1543.5 22.5,-34 -57,-8.5 13,36 -44.5,24.5 12.5,-36.5 -24.5,34 -53,15.5 -9,-36.5 -48.5,-20.5 -45.5,-23.5 14.5,-36 -2.5,-36.5 -43,-25 -55.5,11.5 6,-36.5 57.5,6 -34.5,30 -34,-30 -55,12 -5,37 55.5,-11.5 -28.5,-32.5 33,-30.5 27,32.5 58,-5 36,29 -55.5,-12 -52,-16 -6.5,36.5 15.5,-35.5 39,-27.5 -38,-28.5 -49.5,19.5 -48.5,-20.5 -35,-29.5 -47.5,-21.5 -38,-28.5 17.5,35.5 31.5,-31 -58.5,2 53,-15.5 -39,27.5 6.5,36.5 -45.5,23.5 16,-35.5 -25,-33.5 -17.5,-35.5 55,-12.5 -25,-33.5 32.5,31 -57.5,-6.5 45,-23.5 13.5,-36 -32.5,-31 -54,-14 -32,31 22,34.5 46,-23 -39.5,27 54,14 -24.5,-33.5 56,-11 41.5,-26 55.5,-11.5 -34,-30 34.5,-30 28.5,-32 -24.5,33.5 58.5,3 9.5,36.5 -28,32.5 15,35.5 57.5,-7 42.5,-25 58.5,-2 -56,11 -34.5,30 -55.5,11.5 47,-22 -31,31.5 -50.5,-18.5 -56,-10.5 23.5,-33.5 56,10.5 -46.5,22.5 5.5,-36.5 -15.5,35.5 55,-12.5 24.5,33.5 15.5,-35.5 52,-17 21,34 8,37 -16,-35.5 56,10.5 -57.5,-7 -58.5,-2 19,35.5 -20.5,34.5 58,-2.5 -12,-36.5 -48.5,-20.5 -53.5,14.5 -58.5,-3" /><path
         id="path36"
         style="fill:none;stroke:#000000;stroke-width:2.5;stroke-linecap:butt;stroke-linejoin:miter;stroke-miterlimit:3.79999995;stroke-dasharray:none;stroke-opacity:1"
         d="m 1405,1168.5 56,11 -26,-33 2,37 -53.5,15 -20,34.5 -58.5,-0.5 -43.5,24.5 58.5,-1.5 -34,-30.5 -22,34.5 9.5,-36.5 11.5,36.5 32,30.5 -19.5,-34.5 -5.5,-37 -47,-22 33,30.5 -40,-27 -55,12 57.5,-6 56,11 -50.5,-18.5 55.5,-11 -36.5,-28.5 -57,7.5 48,-21 47.5,-21.5 -58,2.5 -25.5,33.5 -57.5,7 -55.5,-11.5 58.5,1 -28,-32.5 -35.5,29.5 34.5,-30 2,-37 -43,25 51.5,17.5 11.5,-36.5 8,-36.5 -18,-35.5 20.5,-34.5 -39.5,27 53,-15.5 58,2.5 25.5,-33 -30.5,-31.5 -48,21 28,32.5 35,30 -53.5,-15 -49,20.5 -41.5,-26 -2.5,37 -14,35.5 -57.5,7 -6.5,36.5 5,-36.5 43.5,24.5 -38.5,-27.5 17.5,-35.5 21,-34.5 -38.5,-28 -49,-19.5 15,35.5 h -58.5 l -34,-30 -54.5,-13.5 55,13 52,-17 55.5,-11.5 8,-36.5 -58.5,1.5 -33.5,-30.5 2,37 -45,24 58.5,3.5 57,-7.5 31,-31.5 49,-20 58,-3.5 -42.5,-25 39,27.5 1,-37 -37,28.5 -50.5,-18.5 46.5,22.5 -55.5,-12 30,-31.5 51.5,17 3,-37 -14.5,-36 -58,-4 -4,-37 43,25 15,36 40,26.5 58,-4.5 23,-34 48,-21 -34,-30.5 h 58.5 L 1322,690 1301,655.5" /><path
         id="path38"
         style="fill:none;stroke:#000000;stroke-width:2.5;stroke-linecap:butt;stroke-linejoin:miter;stroke-miterlimit:3.79999995;stroke-dasharray:none;stroke-opacity:1"
         d="m 1301,655.5 -7.5,36.5 -53,15.5 40.5,27 53.5,-15 -47,22 -56,11 58,-4.5 -45,23.5 -28.5,-32.5 19.5,35 13,36 49.5,-20 -50,19.5 -20.5,-35 -24,34 32,31 58,-5 -29,32 57,-7 -41,-26.5 -17,-35.5 -37,-28.5 7.5,36.5 58,-1.5 56,-11 -39,-27.5 47,-22 -33,-30.5 -8,36.5 58.5,2.5 11.5,-36 -54,-14.5 -16,-35.5 50.5,-18.5 11.5,36 49.5,19.5 15.5,35.5 29.5,32 -57.5,5.5 10,-36.5 -8.5,-36.5 -53,15.5 -13.5,36 42,25.5 58,-5.5 -27,33 -21,34.5 -58.5,2 44.5,24 50.5,18.5 -51.5,-17.5 36.5,-28.5 31,-31.5 -20,-34.5 53,-16 -51,18 25,-33 40.5,26.5 39.5,27.5 -23,-34 5,-37 55.5,-12 16,35.5 -58,3.5 39.5,-27.5 -57.5,6 57.5,-6 37.5,-28 -3.5,36.5 -45,23.5 53.5,-14 14,-36 9,36.5 -51,18 -20.5,35 -30.5,31.5 58,-4.5 -29.5,-32 -57.5,-6 -58.5,-1.5 58,5.5 46,-22.5 13,-36 -10.5,-36.5 17,35.5 54,-14 56,-11 -16.5,-35.5 54.5,-13.5 26,-33 6.5,-37 -43.5,25 57,-8.5 -16,35.5 -32,31 57.5,6.5 53,-15.5 20.5,35 -55.5,-11.5 -20,-35 -8.5,-36.5 6,37 42.5,25.5 15,35.5" /><path
         id="path40"
         style="fill:none;stroke:#000000;stroke-width:2.5;stroke-linecap:butt;stroke-linejoin:miter;stroke-miterlimit:3.79999995;stroke-dasharray:none;stroke-opacity:1"
         d="m 1831.5,711 -42.5,-25.5 -12,-36 56,10.5 28,32.5 -24.5,-34 55.5,11.5 -3.5,-37 58,-5.5 4,-37 -16.5,35.5 21.5,34.5 -57.5,-6 44.5,-24 -4.5,37 -50.5,18.5 -56.5,9 40.5,-26.5 -47.5,-22 -46.5,22.5 -46,22.5 -58.5,-2 -54.5,13 15,35.5 -9.5,-36.5 -12.5,-36 39,27.5 8,36.5 12.5,-36 -55.5,-11.5 49,20.5 9,-36.5 35,29.5 -27.5,-32.5 23,34 -53,-15.5 24,34 57,8.5 -35.5,-29.5 -58,4.5 46.5,22 -45,23.5 -58.5,-3.5 -23.5,-33.5 58,-4 -50,-19 -57.5,7.5 49.5,19.5 -27.5,-32.5 -54,-14.5 -58.5,-0.5 -52,16.5 14.5,36 58.5,-2.5 -24.5,33.5 -58.5,1 -48,21 -9,-36.5 31,-31.5 49.5,-19.5 -28,-32.5 v 37 l 22,-34 -38,28 52.5,15.5 50,-19 58.5,2 -57,-8 -11,-36 -39.5,-27.5 54,-13.5 30,31.5 33,30.5 33,-30.5 -39,-27.5 -58,-3.5 -57,9 -52.5,16.5 5,37 18,35 -52.5,16.5 -55,12.5 -44,24 -55.5,-12 56.5,10 54.5,13 -41,26.5 -35.5,-29 -49.5,19 -11.5,-36 -9,-36.5 -49,19.5 45,-23 17,35.5 -58,-3 -54.5,-14 49,20.5 -1.5,37 -55.5,-11.5 58,-0.5 41.5,26.5 29,32 29.5,32 32,31 41.5,26" /><path
         id="path42"
         style="fill:none;stroke:#000000;stroke-width:2.5;stroke-linecap:butt;stroke-linejoin:miter;stroke-miterlimit:3.79999995;stroke-dasharray:none;stroke-opacity:1"
         d="m 1237,908 35,29.5 -52,-17 35,-29.5 6.5,-37 33.5,30.5 -22,34.5 -45,-24 4.5,-37 58,3 -13,36 5.5,-37 58,-3.5 -11.5,36 38,28 -26,-33 3.5,37 -36,29 27,-32.5 41.5,-26 58.5,2.5 -42.5,-25 -29.5,-32 -49,20 48.5,20 -57,-7 22.5,34 -49,20 38.5,28 48.5,-20.5 -55,-12 35,29.5 32.5,-31 -58,-6 31,-31.5 -25,33.5 58.5,-3 56,-10 -54,-14 -54.5,-13.5 44,-24.5 -44.5,-24 8.5,-36.5 -43,25 57.5,-5 58.5,-1.5 -24,33.5 -49,-19.5 -55,-13 56,11 -31.5,31.5 -20.5,-35 -45,-23.5 57,-7.5 -42,25.5 17.5,35.5 45.5,-23.5 -30.5,-31.5 -58,3 21.5,-34.5 44.5,24 -28.5,32 28,32.5 42.5,-25 46.5,22.5 26,33 23.5,-34 -46.5,22.5 -41,-26.5 -49,-20 27.5,-33 48.5,-20.5 -27,-32.5 -20.5,-35 -47.5,-21 -33.5,30 -7,37 -8,-36.5 -13.5,36 54.5,13 -39.5,27 -9,36.5 8.5,-36.5 -41,-26.5 -46.5,-22 45.5,-23.5 33,30.5 -43.5,25 -38.5,28 -55,11.5 -25,33.5 20,-34.5 -10.5,-36.5 24.5,33.5 -56,-10 -36,-29.5 -57,-8.5 10.5,36 -30.5,32 -55,-12.5 17.5,-35.5 9.5,-36.5 -30,32 -50,19 57.5,7" /><path
         id="path44"
         style="fill:none;stroke:#000000;stroke-width:2.5;stroke-linecap:butt;stroke-linejoin:miter;stroke-miterlimit:3.79999995;stroke-dasharray:none;stroke-opacity:1"
         d="m 879.5,800.5 50,-19 -28,-32.5 43.5,24.5 31.5,-31 58,-4 -11.5,-36 -38,-28 -54,14.5 20.5,34.5 -10.5,36.5 -34,30 58,3.5 48,-21 -8,-37 -58.5,1 7.5,37 -58.5,-3.5 -25,33 53.5,-15 -54.5,-13.5 -41,-26.5 -53,-15.5 53.5,15 20,35 54.5,13 H 845 l 58.5,1 49.5,19.5 11,36.5 -58,-6.5 58.5,-1.5 -3,37 58,4 30,-31.5 57,8.5 -23.5,-34 -40,27 2.5,-37 L 990,807 h 58 l 45.5,23 -36.5,29 -9,-36.5 -23,-34 -50,-19 -43.5,24.5 -12,36 54.5,-12.5 -57.5,6.5 58.5,1 57.5,-5.5 37,28.5 -46.5,22 -26.5,33 -46.5,-22.5 24,-33.5 29.5,-32 -24.5,-33.5 45.5,-23 -32.5,-31 19.5,-35 -52.5,16 -2.5,37 -16.5,-35.5 -45.5,-23 -56,-11 44.5,24 5.5,-37 -58,-4 22.5,-34.5 29.5,-31.5 48.5,-20.5 18.5,-35.5 43.5,25 42,-26 56.5,9 -2,37 -55,12 L 979,606 929.5,586.5 874,575 l 35.5,29.5 -38.5,-28 58.5,-2.5 -10.5,-36 -46.5,22 45,23.5 -47.5,22 36.5,28.5 -51,-18 10,-36.5 -58,5 16,-35.5 58,0.5 -37,-28.5 8,-36.5 53,-15.5 40,26.5 57,8.5 -3.5,-37 58.5,-2 58,2.5 26,-33 15,-36" /><path
         id="path46"
         style="fill:none;stroke:#000000;stroke-width:2.5;stroke-linecap:butt;stroke-linejoin:miter;stroke-miterlimit:3.79999995;stroke-dasharray:none;stroke-opacity:1"
         d="m 1156.5,398.5 54.5,13.5 -55.5,-11.5 -25,33.5 6,36.5 -54.5,-13 58,4.5 31,-31 36.5,29 47.5,-21.5 -8,36.5 -4,37 -57.5,-5.5 58,0.5 -5,37 -58.5,-2.5 -43,-25 55.5,-11 57,-9 -58.5,4 4,37 -46.5,-22.5 21.5,-34.5 -12,36.5 -53.5,-15 53.5,-15 36.5,-29 -8.5,36.5 13,36 58,-4.5 23,34 52,-17 -58.5,-2.5 -54,14 -42.5,25.5 57,-9 -22,-34.5 51,-18 28,32.5 57,8 -45,-23.5 58,-3.5 -34,30 27.5,32.5 -41,-26 -54.5,13 -46.5,-22.5 -58.5,-3 -49,-20 -30,31.5 58,-4 17.5,-35 -52,-17 43.5,-24.5 -10.5,36 36,29.5 57,-7.5 -5,-37 -52.5,16 57,7 18,35 -1,37 -19,-35 h -58.5" /></g></g></svg>